<?xml version="1.0" encoding="UTF-8"?>
<svg xmlns="http://www.w3.org/2000/svg" width="193" height="83" viewBox="0 0 193 83" fill="none">
  <path d="M69.3196 0.418945L55.1284 14.6052H59.1405L73.3317 0.418945H69.3196Z" fill="#F05A00"></path>
  <path d="M61.7277 0.418945L47.5436 14.6052H51.5769L65.7398 0.418945H61.7277Z" fill="#F05A00"></path>
  <path d="M132.719 55.6737V41.3952H173.989C175.073 41.3952 175.945 41.0687 176.612 40.4229C177.299 39.7771 177.639 38.8404 177.639 37.6623C177.639 36.4843 177.299 35.5262 176.612 34.8662C175.924 34.1778 175.052 33.8372 173.989 33.8372H149.704C147.152 33.8372 144.798 33.4185 142.608 32.6024C140.418 31.7863 138.56 30.6437 137.001 29.196C135.441 27.7483 134.222 26.0167 133.35 23.9586C132.478 21.9219 132.039 19.658 132.039 17.16C132.039 14.662 132.478 12.3839 133.35 10.3259C134.229 8.25368 135.441 6.47951 137.001 5.01759C138.56 3.54858 140.425 2.40602 142.608 1.61119C144.798 0.802166 147.152 0.418945 149.704 0.418945H191.653V14.6194H150.384C149.3 14.6194 148.442 14.9246 147.797 15.5491C147.152 16.1807 146.826 17.0749 146.826 18.2742C146.826 19.4735 147.152 20.3109 147.797 20.9993C148.442 21.6877 149.321 22.0283 150.384 22.0283H174.669C177.278 22.0283 179.653 22.447 181.8 23.2632C183.948 24.0793 185.813 25.2218 187.407 26.7121C188.988 28.1812 190.222 29.9482 191.101 32.0276C191.972 34.0998 192.412 36.3494 192.412 38.7836C192.412 41.2178 191.972 43.6377 191.101 45.7171C190.229 47.7893 188.988 49.5635 187.407 51.0679C185.827 52.5724 183.948 53.715 181.8 54.5169C179.653 55.3189 177.278 55.695 174.669 55.695H132.719V55.6737Z" fill="white"></path>
  <path d="M18.0837 0.418945C15.539 0.418945 13.1785 0.816359 10.9952 1.61828C8.80486 2.42021 6.94767 3.54148 5.38819 5.02469C3.82871 6.4937 2.60948 8.26078 1.7376 10.3401C0.858617 12.4123 0.419128 14.6762 0.419128 17.1742C0.419128 19.6722 0.858617 21.9361 1.73051 23.9728C2.6024 26.0096 3.82162 27.7625 5.3811 29.2102C6.94058 30.6579 8.80486 31.8005 10.9881 32.6166C13.1714 33.4327 15.5319 33.8514 18.0837 33.8514H42.3691C43.4323 33.8514 44.3255 34.192 44.9918 34.8804C45.6723 35.5688 45.9984 36.4985 45.9984 37.6765C45.9984 38.8546 45.6581 39.7913 44.9918 40.4371C44.3042 41.0829 43.4323 41.4094 42.3691 41.4094H1.10672V55.6879H43.0566C45.6652 55.6879 48.0399 55.2905 50.1877 54.5098C52.3355 53.7079 54.1998 52.5654 55.7947 51.0609C57.3755 49.5564 58.6089 47.768 59.4808 45.71C60.3597 43.6377 60.7921 41.3313 60.7921 38.7765C60.7921 36.2217 60.3527 34.0927 59.4808 32.0205C58.6089 29.9482 57.3684 28.1954 55.7947 26.7051C54.214 25.236 52.3355 24.0793 50.1877 23.2632C48.0399 22.447 45.6652 22.0283 43.0566 22.0283H18.7713C17.6868 22.0283 16.8291 21.6877 16.184 21.0206C15.539 20.3322 15.2129 19.438 15.2129 18.2955C15.2129 17.0961 15.539 16.202 16.184 15.5704C16.8291 14.9388 17.6868 14.6407 18.7713 14.6407H43.9852L58.1765 0.440235H18.0837V0.418945Z" fill="white"></path>
  <path d="M125.17 12.7388C124.086 10.1911 122.583 7.9982 120.626 6.18855C118.67 4.37889 116.345 2.95246 113.665 1.94473C110.986 0.915713 108.016 0.418945 104.784 0.418945H76.8831L62.6989 14.6194H105.01C106.988 14.6194 108.64 15.2652 109.972 16.5781C111.305 17.891 111.971 19.6084 111.971 21.7729C111.971 23.9373 111.305 25.5625 109.972 26.8754C108.64 28.1883 106.988 28.834 105.01 28.834H82.8729V18.9129H68.0933V55.695H82.8729V41.97H104.784C108.016 41.97 110.965 41.4732 113.665 40.4868C116.345 39.4933 118.67 38.0881 120.626 36.243C122.583 34.3978 124.086 32.205 125.17 29.6573C126.233 27.1025 126.786 24.3064 126.786 21.2406C126.765 18.1181 126.233 15.2794 125.17 12.7317" fill="white"></path>
  <path d="M0.532331 71.4903V69.0135H7.7201C7.91149 69.0135 8.06035 68.9567 8.17377 68.8432C8.28718 68.7296 8.34389 68.5735 8.34389 68.3677C8.34389 68.1619 8.28718 68.0058 8.17377 67.8709C8.06035 67.7574 7.9044 67.7006 7.7201 67.7006H3.48116C3.04167 67.7006 2.62345 67.6226 2.24776 67.4948C1.86497 67.3387 1.54599 67.1542 1.27663 66.9058C1.00726 66.6574 0.801695 66.3523 0.645748 65.9903C0.496889 65.6284 0.418915 65.2452 0.418915 64.8052C0.418915 64.3652 0.496889 63.9678 0.645748 63.6058C0.801695 63.2439 1.00726 62.9388 1.27663 62.6762C1.54599 62.4278 1.86497 62.222 2.24776 62.0872C2.63054 61.9523 3.04876 61.8813 3.48116 61.8813H10.8036V64.3581H3.61584C3.42445 64.3581 3.27559 64.4149 3.16218 64.5284C3.04876 64.642 2.99205 64.7981 2.99205 65.0039C2.99205 65.1955 3.04876 65.3658 3.16218 65.4794C3.27559 65.5929 3.43154 65.6497 3.61584 65.6497H7.85478C8.30845 65.6497 8.72667 65.7277 9.08819 65.8555C9.47097 66.0116 9.78995 66.1961 10.0593 66.4658C10.3429 66.7142 10.5555 67.0335 10.7044 67.4026C10.8603 67.7645 10.9312 68.1619 10.9312 68.5806C10.9312 68.9993 10.8532 69.418 10.7044 69.7799C10.5484 70.1419 10.3429 70.447 10.0593 70.7096C9.77578 70.9793 9.4497 71.1638 9.08819 71.3199C8.70541 71.4548 8.28718 71.5257 7.85478 71.5257H0.532331V71.4903Z" fill="white"></path>
  <path d="M15.539 69.1124V66.806H18.6579C18.9982 66.806 19.2888 66.6924 19.5298 66.4654C19.7566 66.2383 19.87 65.9331 19.87 65.5712C19.87 65.1879 19.7566 64.8828 19.5298 64.677C19.303 64.4499 19.0123 64.3363 18.6579 64.3363H14.7947V71.4969H12.2286V61.8667H18.6154C19.1895 61.8667 19.6999 61.959 20.1536 62.1364C20.6285 62.3067 21.0255 62.5551 21.3728 62.8815C21.7131 63.208 21.9824 63.5841 22.1738 64.0241C22.3652 64.4641 22.4574 64.9538 22.4574 65.5073C22.4574 66.0608 22.3652 66.5363 22.1738 66.9763C21.9824 67.4163 21.7201 67.7924 21.3728 68.1189C21.0326 68.4453 20.6285 68.6937 20.1536 68.864C19.6787 69.0343 19.1612 69.1337 18.6154 69.1337H15.5319L15.539 69.1124Z" fill="white"></path>
  <path d="M30.9636 71.4905L30.1626 70.0073H25.6543L26.7601 67.9493H29.078L27.4406 64.8481L23.9034 71.4905H21.0538L25.9591 62.5629C26.2284 62.0874 26.6041 61.8604 27.1216 61.8604H27.7099C28.2061 61.8604 28.6031 62.0874 28.8725 62.5629L33.7777 71.4905H30.9636Z" fill="white"></path>
  <path d="M42.2556 71.4898L40.3346 69.0556H38.0521V66.806H41.3624C41.7239 66.806 42.0075 66.6924 42.2343 66.4653C42.4611 66.2383 42.5745 65.9544 42.5745 65.5712C42.5745 65.1879 42.4611 64.9041 42.2343 64.677C42.0075 64.4499 41.7239 64.3363 41.3624 64.3363H37.3149V71.4969H34.7488V61.8667H41.3837C41.9366 61.8667 42.447 61.959 42.9077 62.1364C43.3614 62.3067 43.7796 62.5551 44.1057 62.8815C44.4459 63.208 44.7153 63.5841 44.9067 64.0241C45.0981 64.4641 45.1902 64.9538 45.1902 65.4931C45.1902 66.2383 45.0201 66.8841 44.6586 67.4376C44.2971 67.9911 43.8221 68.4098 43.2125 68.6937L45.6439 71.5324H42.2556V71.5111V71.4898Z" fill="white"></path>
  <path d="M53.9942 71.4905L50.0601 67.4383C49.9467 67.3035 49.8475 67.1687 49.7907 67.0551C49.734 66.9416 49.6986 66.8067 49.6986 66.6577V66.4306C49.6986 66.1467 49.812 65.8984 50.0388 65.65L53.8454 61.8816H57.1557L52.5127 66.53L57.3826 71.5189H54.0013V71.4976L53.9942 71.4905ZM46.5371 61.8604H49.1244V71.4976H46.5371V61.8604Z" fill="white"></path>
  <path d="M65.591 69.1124V66.806H68.71C69.0502 66.806 69.3408 66.6924 69.5819 66.4654C69.8087 66.2383 69.9221 65.9331 69.9221 65.5712C69.9221 65.1879 69.8087 64.8828 69.5819 64.677C69.355 64.4499 69.0715 64.3363 68.71 64.3363H64.8467V71.4969H62.2807V61.8667H68.6674C69.2416 61.8667 69.752 61.959 70.2056 62.1364C70.6806 62.3067 71.0775 62.5551 71.4249 62.8815C71.7651 63.208 72.0345 63.5841 72.2259 64.0241C72.4173 64.4641 72.5094 64.9538 72.5094 65.5073C72.5094 66.0608 72.4102 66.5363 72.2259 66.9763C72.0345 67.4163 71.7722 67.7924 71.4249 68.1189C71.0846 68.4453 70.6806 68.6937 70.2056 68.864C69.7307 69.0343 69.2133 69.1337 68.6674 69.1337H65.5839L65.591 69.1124Z" fill="white"></path>
  <path d="M81.2993 71.4898L79.3783 69.0556H77.0958V66.806H80.4062C80.7677 66.806 81.0512 66.6924 81.2781 66.4653C81.5049 66.2383 81.6183 65.9544 81.6183 65.5712C81.6183 65.1879 81.5049 64.9041 81.2781 64.677C81.0512 64.4499 80.7677 64.3363 80.4062 64.3363H76.3586V71.4969H73.7926V61.8667H80.4274C80.9803 61.8667 81.4907 61.959 81.9515 62.1364C82.4051 62.3067 82.8234 62.5551 83.1494 62.8815C83.4897 63.208 83.759 63.5841 83.9504 64.0241C84.1418 64.4641 84.234 64.9538 84.234 65.4931C84.234 66.2383 84.0638 66.8841 83.7023 67.4376C83.3408 67.9911 82.8659 68.4098 82.2563 68.6937L84.6876 71.5324H81.3064V71.5111L81.2993 71.4898Z" fill="white"></path>
  <path d="M91.8329 69.0136C92.1731 69.0136 92.4779 68.9568 92.7615 68.8433C93.045 68.7297 93.2931 68.5736 93.5058 68.3678C93.7184 68.162 93.8673 67.9278 93.9807 67.6226C94.0941 67.3388 94.1508 67.0123 94.1508 66.6717C94.1508 66.331 94.0941 66.0046 93.9807 65.7207C93.8673 65.4368 93.7113 65.1885 93.5058 64.9756C93.3002 64.7698 93.0521 64.6136 92.7615 64.5001C92.4779 64.3865 92.1731 64.3298 91.8329 64.3298H90.082C89.7418 64.3298 89.4369 64.3865 89.1463 64.5001C88.8628 64.6136 88.6147 64.7698 88.402 64.9756C88.1965 65.1885 88.0405 65.4298 87.9058 65.7207C87.7924 66.0046 87.7357 66.331 87.7357 66.6717C87.7357 67.0123 87.7924 67.3388 87.9058 67.6226C88.0192 67.9065 88.1752 68.1549 88.3808 68.3678C88.5863 68.5807 88.8344 68.7297 89.1251 68.8433C89.4086 68.9568 89.7347 69.0136 90.0749 69.0136H91.8258H91.8329ZM90.2521 71.4903C89.5078 71.4903 88.8273 71.3768 88.2177 71.1497C87.5868 70.9226 87.0552 70.5961 86.6228 70.1774C86.1691 69.7587 85.8218 69.2407 85.5595 68.6516C85.2902 68.0626 85.1767 67.3955 85.1767 66.6717C85.1767 65.9478 85.3114 65.302 85.5595 64.713C85.8076 64.124 86.1691 63.6272 86.6228 63.1872C87.0765 62.7685 87.6152 62.4279 88.2177 62.1937C88.8486 61.9666 89.5078 61.853 90.2521 61.853H91.6415C92.3645 61.853 93.0521 61.9666 93.6759 62.1937C94.2997 62.4208 94.8384 62.7472 95.2708 63.1872C95.7245 63.6059 96.0718 64.124 96.3341 64.713C96.5822 65.302 96.7169 65.9478 96.7169 66.6717C96.7169 67.3955 96.5822 68.0413 96.3341 68.6516C96.086 69.262 95.7245 69.7587 95.2708 70.1774C94.8171 70.5961 94.2784 70.9226 93.6759 71.1497C93.045 71.3768 92.3858 71.4903 91.6415 71.4903H90.2521Z" fill="white"></path>
  <path d="M101.495 65.6429H106.932V67.8145H101.495V65.6429ZM98.0496 71.4905V61.8604H107.024V64.3371H100.651V71.4976H98.0496V71.4905Z" fill="white"></path>
  <path d="M111.879 65.6287H117.564V67.6867H111.879V65.6287ZM108.42 71.4905V61.8604H117.663V64.3371H111.029V69.0209H117.685V71.4976H108.427L108.42 71.4905Z" fill="white"></path>
  <path d="M144.664 61.853H142.076V71.4903H144.664V61.853Z" fill="white"></path>
  <path d="M183.955 71.4903V61.853H186.557V69.0136H192.419V71.4903H183.955Z" fill="white"></path>
  <path d="M65.591 78.3455H69.5251V79.7719H65.591V78.3455ZM63.2163 82.3977V75.7339H69.6031V77.4442H65.0027V80.6803H69.6031V82.4119H63.2163V82.3906V82.3977Z" fill="white"></path>
  <path d="M104.365 75.7339H102.579V82.3977H104.365V75.7339Z" fill="white"></path>
  <path d="M125.702 78.3455H129.636V79.7719H125.702V78.3455ZM123.306 82.3977V75.7339H129.693V77.4442H125.092V80.6803H129.693V82.4119H123.306V82.3906V82.3977Z" fill="white"></path>
  <path d="M47.3308 78.2109H0.418915V79.9212H47.3308V78.2109Z" fill="white"></path>
  <path d="M192.419 78.2109H145.5V79.9212H192.419V78.2109Z" fill="white"></path>
  <path d="M118.953 71.4905V69.0137H126.141C126.333 69.0137 126.481 68.957 126.595 68.8434C126.708 68.7299 126.765 68.5737 126.765 68.3679C126.765 68.1621 126.708 68.006 126.595 67.8712C126.481 67.7576 126.326 67.7008 126.141 67.7008H121.902C121.463 67.7008 121.045 67.6228 120.669 67.495C120.286 67.3389 119.967 67.1544 119.698 66.906C119.428 66.6576 119.223 66.3525 119.074 65.9906C118.925 65.6286 118.847 65.2454 118.847 64.8125C118.847 64.3796 118.925 63.9751 119.074 63.6132C119.223 63.2512 119.435 62.9461 119.698 62.6835C119.967 62.4351 120.286 62.2293 120.669 62.0945C121.052 61.9596 121.47 61.8887 121.902 61.8887H129.225V64.3654H122.037C121.846 64.3654 121.697 64.4222 121.583 64.5357C121.47 64.6493 121.413 64.8054 121.413 65.0112C121.413 65.2028 121.47 65.3731 121.583 65.4867C121.697 65.6002 121.853 65.657 122.037 65.657H126.276C126.73 65.657 127.148 65.7351 127.509 65.8628C127.892 66.0189 128.211 66.2035 128.48 66.4731C128.764 66.7215 128.977 67.0409 129.126 67.4099C129.274 67.7718 129.352 68.1692 129.352 68.5879C129.352 69.0066 129.274 69.4253 129.126 69.7873C128.97 70.1492 128.764 70.4544 128.48 70.7169C128.197 70.9866 127.871 71.1711 127.509 71.3273C127.127 71.4621 126.708 71.5331 126.276 71.5331H118.953V71.4976V71.4905Z" fill="white"></path>
  <path d="M130.38 71.4905V69.0137H137.568C137.759 69.0137 137.908 68.957 138.022 68.8434C138.135 68.7299 138.192 68.5737 138.192 68.3679C138.192 68.1621 138.135 68.006 138.022 67.8712C137.908 67.7576 137.752 67.7008 137.568 67.7008H133.329C132.89 67.7008 132.471 67.6228 132.096 67.495C131.713 67.3389 131.394 67.1544 131.125 66.906C130.855 66.6576 130.65 66.3525 130.501 65.9906C130.352 65.6286 130.274 65.2454 130.274 64.8125C130.274 64.3796 130.352 63.9751 130.501 63.6132C130.65 63.2512 130.862 62.9461 131.125 62.6835C131.394 62.4351 131.713 62.2293 132.096 62.0945C132.478 61.9596 132.897 61.8887 133.329 61.8887H140.651V64.3654H133.464C133.272 64.3654 133.123 64.4222 133.01 64.5357C132.897 64.6493 132.84 64.8054 132.84 65.0112C132.84 65.2028 132.897 65.3731 133.01 65.4867C133.123 65.6002 133.279 65.657 133.464 65.657H137.703C138.156 65.657 138.575 65.7351 138.936 65.8628C139.319 66.0189 139.638 66.2035 139.907 66.4731C140.191 66.7215 140.403 67.0409 140.552 67.4099C140.701 67.7718 140.779 68.1692 140.779 68.5879C140.779 69.0066 140.701 69.4253 140.552 69.7873C140.396 70.1492 140.191 70.4544 139.907 70.7169C139.624 70.9866 139.298 71.1711 138.936 71.3273C138.553 71.4621 138.135 71.5331 137.703 71.5331H130.38V71.4976V71.4905Z" fill="white"></path>
  <path d="M152.631 69.0131C152.971 69.0131 153.276 68.9563 153.567 68.8428C153.85 68.7292 154.098 68.5731 154.311 68.3673C154.524 68.1615 154.673 67.9273 154.786 67.6221C154.899 67.3383 154.956 67.0118 154.956 66.6712C154.956 66.3305 154.899 66.0041 154.786 65.7202C154.673 65.4364 154.517 65.188 154.311 64.9751C154.106 64.7693 153.857 64.6131 153.567 64.4996C153.283 64.3861 152.978 64.3293 152.631 64.3293H150.88C150.54 64.3293 150.235 64.3861 149.945 64.4996C149.661 64.6131 149.413 64.7693 149.2 64.9751C148.995 65.188 148.839 65.4293 148.704 65.7202C148.591 66.0041 148.534 66.3305 148.534 66.6712C148.534 67.0118 148.591 67.3383 148.704 67.6221C148.818 67.906 148.973 68.1544 149.179 68.3673C149.385 68.5802 149.633 68.7292 149.923 68.8428C150.207 68.9563 150.533 69.0131 150.873 69.0131H152.624H152.631ZM151.072 71.4898C150.327 71.4898 149.647 71.3763 149.037 71.1492C148.406 70.9221 147.875 70.5957 147.442 70.1769C146.989 69.7582 146.641 69.2402 146.379 68.6512C146.11 68.0621 145.996 67.395 145.996 66.6712C145.996 65.9473 146.131 65.3015 146.379 64.7125C146.627 64.1235 146.989 63.6267 147.442 63.1867C147.896 62.768 148.435 62.4274 149.037 62.1932C149.668 61.9661 150.327 61.8525 151.072 61.8525H152.461C153.184 61.8525 153.872 61.9661 154.495 62.1932C155.119 62.4203 155.658 62.7467 156.09 63.1867C156.544 63.6054 156.891 64.1235 157.154 64.7125C157.402 65.3015 157.536 65.9473 157.536 66.6712C157.536 67.395 157.402 68.0408 157.154 68.6512C156.906 69.2615 156.544 69.7582 156.09 70.1769C155.637 70.5957 155.098 70.9221 154.495 71.1492C153.865 71.3763 153.205 71.4898 152.461 71.4898H151.072Z" fill="white"></path>
  <path d="M167.808 71.4906C167.468 71.4906 167.198 71.4338 166.993 71.299C166.801 71.1641 166.574 70.9583 166.326 70.6674L161.364 65.2952V71.4835H158.855V62.9533C158.855 62.2294 159.252 61.8462 160.053 61.8462H160.684C160.875 61.8462 161.045 61.8675 161.194 61.8817C161.35 61.9172 161.478 61.9597 161.591 62.0165C161.705 62.0733 161.818 62.1514 161.931 62.2436C162.024 62.343 162.137 62.4352 162.257 62.5488L166.801 67.4597V61.8462H169.311V70.4899C169.311 71.157 168.984 71.4764 168.339 71.4764H167.808V71.4906Z" fill="white"></path>
  <path d="M180.17 71.4905L179.369 70.0073H174.861L175.967 67.9493H178.285L176.647 64.8481L173.131 71.4905H170.282L175.187 62.5629C175.456 62.0874 175.832 61.8604 176.349 61.8604H176.938C177.434 61.8604 177.831 62.0874 178.1 62.5629L183.006 71.4905H180.17Z" fill="white"></path>
  <path d="M49.9963 82.398V80.6664H54.9795C55.1142 80.6664 55.2063 80.6309 55.3056 80.5528C55.3836 80.4748 55.419 80.3612 55.419 80.2122C55.419 80.0632 55.3836 79.9638 55.3056 79.8715C55.2276 79.7935 55.1142 79.758 54.9795 79.758H52.0519C51.7471 79.758 51.4636 79.7012 51.1942 79.6019C50.9249 79.5025 50.698 79.3748 50.5067 79.1832C50.3153 79.0128 50.1664 78.7999 50.0672 78.5587C49.9537 78.3103 49.9183 78.0406 49.9183 77.7425C49.9183 77.4445 49.975 77.1748 50.0672 76.9264C50.1806 76.678 50.3153 76.4722 50.5067 76.2806C50.698 76.1103 50.9249 75.9542 51.1942 75.8619C51.4636 75.7697 51.7471 75.7129 52.0519 75.7129H57.1132V77.4232H52.1299C51.9952 77.4232 51.9031 77.4587 51.8251 77.5367C51.7471 77.6148 51.7117 77.7283 51.7117 77.8632C51.7117 77.998 51.7471 78.1116 51.8251 78.1896C51.9031 78.2677 52.0165 78.3032 52.1299 78.3032H55.0575C55.3836 78.3032 55.6671 78.36 55.9152 78.4593C56.1846 78.5516 56.3901 78.6864 56.6028 78.878C56.7942 79.0483 56.943 79.2754 57.0423 79.5238C57.1557 79.7722 57.1982 80.0348 57.1982 80.3399C57.1982 80.6451 57.1415 80.929 57.0423 81.1773C56.9289 81.4257 56.7942 81.6315 56.6028 81.8231C56.4114 82.0147 56.1846 82.1496 55.9152 82.2418C55.6458 82.3341 55.3623 82.3909 55.0575 82.3909H49.9963V82.4122V82.398Z" fill="white"></path>
  <path d="M80.9732 82.3982L79.6406 80.7021H78.0598V79.1409H80.3636C80.6117 79.1409 80.8172 79.0628 80.9732 78.9138C81.1221 78.7647 81.2 78.5518 81.2 78.2822C81.2 78.0125 81.1221 77.8067 80.9732 77.6505C80.8172 77.5015 80.6117 77.4235 80.3636 77.4235H77.5494V82.3698H75.7631V75.7061H80.3494C80.7322 75.7061 81.0937 75.7628 81.3985 75.8764C81.7246 75.9899 82.0081 76.1602 82.2349 76.3873C82.4618 76.6144 82.6532 76.8628 82.7879 77.168C82.9225 77.4731 82.9792 77.8138 82.9792 78.1757C82.9792 78.6867 82.8658 79.1267 82.6177 79.5241C82.3696 79.9073 82.0506 80.1912 81.6253 80.397L83.2982 82.3556H80.9803V82.3769L80.9732 82.3982Z" fill="white"></path>
  <path d="M92.1802 82.3977C91.8187 82.3977 91.5494 82.2274 91.3792 81.9009L87.9767 75.7339H89.9899L92.3858 80.2474L94.7817 75.7339H96.7949L93.3711 81.9222C93.201 82.2486 92.9316 82.419 92.5914 82.419H92.1732V82.3977H92.1802Z" fill="white"></path>
  <path d="M113.935 82.3982C113.424 82.3982 112.942 82.3202 112.524 82.1498C112.085 82.0008 111.723 81.7666 111.418 81.4615C111.114 81.1776 110.866 80.8157 110.674 80.4112C110.504 79.9925 110.405 79.5525 110.405 79.0415C110.405 78.5305 110.497 78.0905 110.674 77.6931C110.844 77.2957 111.092 76.9338 111.418 76.6428C111.723 76.359 112.106 76.1319 112.524 75.9544C112.964 75.8054 113.417 75.7061 113.935 75.7061H117.189V77.4235H113.8C113.573 77.4235 113.347 77.4589 113.155 77.537C112.964 77.6151 112.794 77.7286 112.645 77.8776C112.496 78.0267 112.397 78.2041 112.305 78.3886C112.227 78.5802 112.191 78.8073 112.191 79.0344C112.191 79.2828 112.227 79.4886 112.305 79.6802C112.382 79.8718 112.496 80.0421 112.645 80.1983C112.794 80.3331 112.971 80.4466 113.155 80.5247C113.339 80.6028 113.573 80.6383 113.8 80.6383H117.189V82.3698H113.935V82.3911V82.3982Z" fill="white"></path>
  <path d="M135.725 82.398V80.6664H140.708C140.843 80.6664 140.935 80.6309 141.034 80.5528C141.112 80.4748 141.148 80.3612 141.148 80.2122C141.148 80.0632 141.112 79.9638 141.034 79.8715C140.956 79.7935 140.843 79.758 140.708 79.758H137.781C137.476 79.758 137.192 79.7012 136.923 79.6019C136.654 79.5096 136.427 79.3748 136.235 79.1832C136.044 79.0128 135.895 78.7999 135.796 78.5587C135.683 78.3103 135.647 78.0406 135.647 77.7425C135.647 77.4445 135.704 77.1748 135.796 76.9264C135.909 76.678 136.044 76.4722 136.235 76.2806C136.427 76.1103 136.654 75.9542 136.923 75.8619C137.192 75.7697 137.476 75.7129 137.781 75.7129H142.842V77.4232H137.859C137.724 77.4232 137.632 77.4587 137.554 77.5367C137.476 77.6148 137.441 77.7283 137.441 77.8632C137.441 77.998 137.476 78.1116 137.554 78.1896C137.632 78.2677 137.745 78.3032 137.859 78.3032H140.786C141.112 78.3032 141.396 78.36 141.644 78.4593C141.913 78.5516 142.14 78.6864 142.325 78.878C142.516 79.0483 142.665 79.2754 142.764 79.5238C142.877 79.7722 142.913 80.0348 142.913 80.3399C142.913 80.6451 142.856 80.929 142.764 81.1773C142.651 81.4257 142.516 81.6315 142.325 81.8231C142.133 82.0147 141.906 82.1496 141.644 82.2418C141.375 82.3341 141.091 82.3909 140.786 82.3909H135.725V82.4122V82.398Z" fill="white"></path>
</svg>
